<?xml version="1.0" encoding="UTF-8"?>
<svg version="1.1" xmlns="http://www.w3.org/2000/svg" width="5232" height="2312">
<path d="M0 0 C3.38225261 2.94887205 6.69892457 5.96091468 10 9 C12.64354421 11.36049806 15.31951571 13.68161622 18 16 C18.92039062 16.81082031 19.84078125 17.62164063 20.7890625 18.45703125 C62.03660108 54.44129739 118.4165352 78.90694198 173.609375 79.203125 C174.93099388 79.21364647 174.93099388 79.21364647 176.27931213 79.22438049 C179.10292748 79.24176868 181.9263331 79.24823167 184.75 79.25 C186.19746109 79.25101212 186.19746109 79.25101212 187.67416382 79.25204468 C201.66240196 79.23648684 215.2633853 78.87465673 229 76 C229.90363281 75.81775879 230.80726563 75.63551758 231.73828125 75.44775391 C238.20106272 74.12491714 244.60619197 72.62182575 251 71 C251.73492676 70.81743652 252.46985352 70.63487305 253.22705078 70.44677734 C279.0533716 63.91022548 305.52386323 51.78612771 327 36 C327.60328125 35.56220215 328.2065625 35.1244043 328.828125 34.67333984 C339.97767572 26.56632154 350.69585664 18.04411069 360.71606445 8.56933594 C372.05534153 -2.1335266 384.47335926 -11.24255302 398 -19 C399.11117187 -19.65484375 400.22234375 -20.3096875 401.3671875 -20.984375 C436.18192241 -40.93927998 478.39248235 -45.13355867 516.97070312 -35.05029297 C558.11534347 -23.61365729 594.20984721 2.015937 619.6640625 36.21533203 C621.01696649 38.02266539 622.39572716 39.80742634 623.78125 41.58984375 C636.4945525 58.06581803 648.47716558 75.46895588 658 94 C658.3717334 94.71365723 658.7434668 95.42731445 659.12646484 96.16259766 C675.83306795 128.57578534 680.81638577 164.82796408 686.33029252 200.46188372 C687.17627131 205.91361379 688.05322563 211.35604208 689.02220053 216.78742379 C693.76107438 243.43397276 695.91499798 270.06714314 697.68378261 297.05357501 C698.105421 303.42562103 698.54743308 309.7962614 698.98686028 316.16710091 C699.750803 327.27196814 700.5018241 338.37766093 701.24513817 349.48392677 C702.39796464 366.70588757 703.57351256 383.9262577 704.7532647 401.14639234 C705.23718842 408.21103847 705.72049699 415.27572672 706.20380497 422.340415 C706.25771645 423.12834681 706.31162793 423.91627862 706.36717309 424.72808716 C707.2022921 436.93473582 708.03370314 449.14163369 708.86321926 461.34866428 C712.02554678 507.87654142 715.23922001 554.40066282 718.48971639 600.92246153 C718.66966447 603.49793331 718.84959039 606.07340664 719.02951112 608.64888033 C720.056163 623.34455034 721.08316693 638.04019575 722.11077232 652.73579911 C723.87518402 677.96850174 725.63513836 703.20151191 727.39138794 728.43478394 C727.48157969 729.73059809 727.48157969 729.73059809 727.5735935 731.0525903 C728.42527815 743.28915511 729.27671493 755.52573715 730.12808682 767.76232372 C731.10161163 781.75449482 732.07523467 795.74665909 733.04903283 809.73881117 C733.17112717 811.4931454 733.29321928 813.24747979 733.41530917 815.00181433 C735.41861083 843.78745951 737.42653471 872.5727803 739.43650778 901.35796035 C741.54830983 931.60180027 743.65558497 961.84595231 745.75713659 992.09050632 C746.05265441 996.34343377 746.34822342 1000.59635767 746.64382362 1004.8492794 C746.70189874 1005.68485375 746.75997385 1006.52042809 746.81980882 1007.38132287 C747.7438976 1020.67505465 748.67268877 1033.96845364 749.60338602 1047.26172421 C750.5280597 1060.47037391 751.44771646 1073.67936525 752.36222156 1086.88872293 C752.90225463 1094.68691741 753.44608085 1102.48482493 753.99552542 1110.28236206 C754.40579052 1116.11083306 754.80874824 1121.93979488 755.20897511 1127.76896425 C755.37086448 1130.11057243 755.53505314 1132.45202313 755.70188453 1134.79328439 C756.46400497 1145.50508874 757.13327252 1156.18821305 757.17062855 1166.93044567 C757.17478999 1167.70830772 757.17895142 1168.48616977 757.18323896 1169.2876034 C756.99604521 1201.60309288 743.03454993 1231.99562258 720.40625 1254.58984375 C719.03094397 1255.96738242 717.66564469 1257.35549722 716.33203125 1258.7734375 C698.55986359 1277.50502809 668.78457869 1290.03613325 643.10864258 1291.12231445 C606.43336017 1292.01512305 573.42270244 1283.7158813 546.09887695 1257.93505859 C544.73080108 1256.62523274 543.36530419 1255.31271469 542 1254 C541.05060547 1253.16275391 541.05060547 1253.16275391 540.08203125 1252.30859375 C527.40171284 1240.77281714 518.15460685 1223.05499579 512.6875 1207 C512.34174927 1205.98800537 512.34174927 1205.98800537 511.98901367 1204.95556641 C507.09051069 1189.62503303 506.10207208 1174.01763105 505.03834534 1158.06494141 C504.86529436 1155.57809519 504.6913733 1153.09130938 504.51665246 1150.60457993 C504.14411805 1145.27557424 503.7774455 1139.94621623 503.41621578 1134.616436 C502.88692324 1126.8076552 502.34643814 1118.99967808 501.80333943 1111.19184674 C500.92794394 1098.60398394 500.06029069 1086.0156018 499.19734573 1073.42687988 C498.09401502 1057.33413409 496.97438357 1041.24255938 495.84860229 1025.15136719 C495.50068727 1020.17571093 495.15287476 1015.20004752 494.80511379 1010.22438049 C494.71944551 1008.99874801 494.63377722 1007.77311552 494.54551293 1006.51034266 C493.57400391 992.60574844 492.60864889 978.70072781 491.64402771 964.7956543 C491.51142535 962.88421232 491.51142535 962.88421232 491.37614415 960.93415534 C490.92398487 954.41587619 490.47193175 947.89758968 490.01993632 941.37929916 C489.45343418 933.20993214 488.88661104 925.0405874 488.31973457 916.87124634 C486.73602817 894.04771751 485.15260067 871.22416937 483.57051754 848.40052795 C483.52101157 847.68634406 483.47150561 846.97216017 483.42049946 846.23633435 C483.22011577 843.34555128 483.01973353 840.45476812 482.81935167 837.56398493 C482.66871198 835.39080113 482.51807183 833.21761736 482.36743164 831.04443359 C482.31765812 830.32637991 482.26788461 829.60832622 482.2166028 828.86851333 C480.58098787 805.27264999 478.9432647 781.6769336 477.30435512 758.08129889 C475.55110407 732.83936977 473.79958744 707.59732092 472.05012041 682.35512924 C471.85872752 679.59370635 471.66732792 676.83228392 471.47592354 674.07086182 C471.42883177 673.39144833 471.38174001 672.71203485 471.33322122 672.01203308 C470.57899382 661.13103384 469.82320378 650.25014369 469.06684212 639.36929262 C468.31224136 628.51318248 467.55946443 617.65694707 466.80843853 606.80058903 C466.4025193 600.93358143 465.99581471 595.06663104 465.58701515 589.19982338 C465.21336642 583.83720651 464.84193356 578.47444098 464.47228748 573.11154675 C464.3381392 571.17102721 464.20317125 569.23056412 464.06730985 567.29016376 C463.88313608 564.65804291 463.70192911 562.02573395 463.52146816 559.39335632 C463.4678887 558.6378536 463.41430924 557.88235088 463.35910615 557.10395414 C463.06241009 552.72100244 462.95192149 548.38925423 463 544 C462.26289795 544.43642822 461.5257959 544.87285645 460.76635742 545.32250977 C382.06274881 591.85654267 297.45409986 640.52175491 195 646 C194.24041992 646.02191406 193.48083984 646.04382812 192.69824219 646.06640625 C139.43946005 647.40512721 87.15361841 635.35929849 39 613 C36.77636025 611.98758124 34.55238473 610.9758997 32.328125 609.96484375 C3.84465545 596.92581355 -24.44752473 583.20870472 -51.51904297 567.42626953 C-56.45133772 564.59075822 -61.46520991 561.89831943 -66.48144531 559.21459961 C-72.21574916 556.10181941 -77.77282799 552.72195275 -83.33276367 549.31103516 C-84.58450504 548.54452385 -84.58450504 548.54452385 -85.86153412 547.76252747 C-87.90815863 546.5091147 -89.9542985 545.25491844 -92 544 C-92.05605038 544.85017594 -92.11210076 545.70035188 -92.16984963 546.57629073 C-96.60325446 613.78097969 -101.21399954 680.97311244 -105.86612203 748.16295844 C-106.467376 756.84677247 -107.0683461 765.53060611 -107.66915391 774.21445102 C-109.3991982 799.21983924 -111.12964028 824.22519987 -112.86176682 849.23044395 C-112.91478611 849.99584554 -112.96780541 850.76124712 -113.02243135 851.54984269 C-113.23712105 854.64916094 -113.45181231 857.74847909 -113.66650381 860.84779722 C-113.82796263 863.17864213 -113.9894208 865.50948708 -114.15087891 867.84033203 C-114.20422925 868.61050308 -114.25757959 869.38067413 -114.31254661 870.1741837 C-116.05528052 895.33272499 -117.79540444 920.49144588 -119.53401391 945.65027252 C-121.3875477 972.47199774 -123.24330008 999.29356855 -125.10162568 1026.11496222 C-125.30547242 1029.05721777 -125.50931052 1031.99947392 -125.7131424 1034.9417305 C-125.76330511 1035.66579936 -125.81346783 1036.38986823 -125.86515064 1037.13587857 C-126.66750927 1048.7181741 -127.46788336 1060.30060592 -128.26752488 1071.88308931 C-129.0688473 1083.48916161 -129.87250973 1095.09506979 -130.6783587 1106.70082872 C-131.11359868 1112.97000147 -131.54787076 1119.23923714 -131.97944832 1125.50866318 C-132.37512308 1131.25618542 -132.77367333 1137.00350111 -133.17441729 1142.75067206 C-133.31800205 1144.81689103 -133.4605771 1146.88318049 -133.6019778 1148.94955008 C-134.28348208 1158.90066129 -135.02332772 1168.84364512 -135.96358109 1178.77404213 C-136.03443064 1179.56204807 -136.10528019 1180.35005402 -136.1782767 1181.16193893 C-139.19238078 1211.60571846 -155.04091592 1240.93491811 -178 1261 C-182.83005184 1264.90832848 -187.86329973 1268.50816659 -193 1272 C-193.95390625 1272.6496875 -194.9078125 1273.299375 -195.890625 1273.96875 C-209.01683219 1282.2195088 -224.72107305 1287.59902576 -240 1290 C-241.00933594 1290.18046875 -242.01867188 1290.3609375 -243.05859375 1290.546875 C-260.47734301 1292.54942695 -278.10101367 1291.62600105 -295 1287 C-295.65677734 1286.82871582 -296.31355469 1286.65743164 -296.99023438 1286.48095703 C-326.78516609 1278.51165489 -353.39617302 1257.06926106 -368.87866211 1230.63549805 C-389.22615561 1194.85763209 -386.66395865 1158.39779431 -383.85237324 1118.69932127 C-383.53023364 1114.12204076 -383.21864889 1109.54403858 -382.90562898 1104.96612704 C-382.35731535 1096.96789171 -381.80244095 1088.97013333 -381.24309921 1080.97266197 C-380.41132881 1069.0796902 -379.58991397 1057.18601848 -378.77046474 1045.2921922 C-377.30613827 1024.04323661 -375.83168286 1002.79499316 -374.35293949 981.54703654 C-373.05894806 962.95320747 -371.76850524 944.3591362 -370.48153114 925.7648201 C-370.39601302 924.52930996 -370.31049489 923.29379981 -370.22238531 922.02084997 C-369.87520806 917.00497749 -369.52804835 911.98910379 -369.18091425 906.97322832 C-365.97394989 860.63518033 -362.7573533 814.29780482 -359.53572699 767.96077427 C-356.58803068 725.56356986 -353.64809783 683.16583483 -350.71557617 640.76757812 C-350.53022575 638.08781995 -350.34487449 635.40806183 -350.15952309 632.72830372 C-350.11369467 632.06572872 -350.06786624 631.40315372 -350.02064908 630.7205007 C-349.51305403 623.38185361 -349.00543367 616.04320827 -348.49778271 608.70456505 C-348.36123766 606.73064778 -348.36123766 606.73064778 -348.22193413 604.7168534 C-345.8068656 569.80596569 -343.38555931 534.89551067 -340.9623087 499.98519003 C-340.7014556 496.22714537 -340.44060443 492.46910058 -340.1797564 488.71105556 C-340.00673041 486.21827757 -339.83369977 483.7254999 -339.66066445 481.23272256 C-338.37102237 462.65304843 -337.08446258 444.07316255 -335.79933739 425.49317551 C-334.33758095 404.35998493 -332.87093346 383.22713982 -331.39797708 362.09472679 C-330.57460562 350.28002831 -329.75482982 338.46509379 -328.94035355 326.6497787 C-328.39501571 318.74421182 -327.84478674 310.83899488 -327.29068332 302.93403758 C-326.97575246 298.439285 -326.66282195 293.94442006 -326.35584869 289.44911639 C-325.08681655 270.88671477 -323.60253595 252.43407454 -321 234 C-320.8181472 232.66446595 -320.63712626 231.32881817 -320.45722073 229.99302042 C-320.05507754 227.02926898 -319.63391449 224.06908526 -319.203125 221.109375 C-319.04894104 220.0419104 -318.89475708 218.9744458 -318.73590088 217.87463379 C-306.45424958 133.33667665 -306.45424958 133.33667665 -290 100 C-289.48759766 98.92685547 -289.48759766 98.92685547 -288.96484375 97.83203125 C-262.90481817 43.50024361 -218.1767649 -9.91529563 -160.28125 -30.75 C-104.1125143 -49.85445877 -45.14175594 -38.48197155 0 0 Z " fill="#EF4A54" transform="translate(2706,577)"/>
<path d="M0 0 C2.48886421 0.49988012 4.97919591 0.99168309 7.47009277 1.48132324 C84.94366098 16.76854794 162.34710206 40.95969214 230.53747559 81.50964355 C231.43933594 82.04444336 232.34119629 82.57924316 233.27038574 83.13024902 C250.33069518 93.31016838 266.47511647 104.66239129 281.90026855 117.18103027 C283.47187002 118.45640385 285.05330496 119.71963094 286.63513184 120.9822998 C295.0255859 127.83207175 302.67949373 135.44017868 310.34997559 143.07214355 C311.15394272 143.86821014 311.15394272 143.86821014 311.97415161 144.68035889 C318.96474964 151.61781836 325.4558524 158.74418583 331.53747559 166.50964355 C332.06897217 167.1764917 332.60046875 167.84333984 333.14807129 168.53039551 C345.10336317 183.63962467 355.49512423 200.05300717 363.61804199 217.53503418 C364.24146773 218.8739262 364.87428205 220.20847913 365.51550293 221.53894043 C380.67814503 253.00160742 388.58211122 288.63088276 389.53747559 323.50964355 C389.55938965 324.29677734 389.58130371 325.08391113 389.60388184 325.89489746 C391.76796825 419.72607746 357.99136742 520.29466792 299.53747559 593.50964355 C298.81302246 594.42745605 298.08856934 595.34526855 297.34216309 596.29089355 C284.40888467 612.4227247 269.85075593 627.78890001 253.53747559 640.50964355 C252.47083588 641.37624657 251.40580424 642.24483158 250.34216309 643.1151123 C224.59603016 664.01990135 195.11239108 678.71069692 163.53747559 688.50964355 C167.02096771 692.14095915 170.61034345 695.18542372 174.66247559 698.19714355 C180.06281371 702.26951707 185.10302494 706.60883928 190.06091309 711.2166748 C192.16056316 713.16067259 194.2951705 715.03225775 196.47497559 716.88464355 C199.98516176 719.9398056 203.30235727 723.16640462 206.59997559 726.44714355 C207.08264893 726.92522461 207.56532227 727.40330566 208.06262207 727.89587402 C212.08327026 731.93347553 215.82734294 736.18691361 219.53747559 740.50964355 C220.07912354 741.13927002 220.62077148 741.76889648 221.17883301 742.41760254 C277.37630668 808.24649789 310.06559741 895.34497637 315.53747559 981.50964355 C315.62215088 982.72949951 315.70682617 983.94935547 315.79406738 985.20617676 C316.50894658 995.91538168 316.73932691 1006.59067624 316.72497559 1017.32214355 C316.72406921 1018.59080765 316.72406921 1018.59080765 316.72314453 1019.88510132 C316.5961036 1085.95335658 302.51171538 1150.60604318 274.53747559 1210.50964355 C274.13593262 1211.37460449 273.73438965 1212.23956543 273.32067871 1213.1307373 C260.96368049 1239.48959207 245.01591862 1264.04502578 226.53747559 1286.50964355 C225.78329346 1287.43374023 225.02911133 1288.35783691 224.2520752 1289.30993652 C217.59723598 1297.37535505 210.49143361 1304.89761437 203.08654785 1312.27624512 C201.2281664 1314.13145818 199.3835765 1315.9996688 197.53942871 1317.86901855 C189.67269694 1325.77709446 181.4592346 1332.82242798 172.53747559 1339.50964355 C171.19886173 1340.54079985 169.86030353 1341.5720284 168.52185059 1342.60339355 C119.33080044 1379.53350082 63.36970859 1395.23978168 2.58885932 1396.21968937 C-1.12998091 1396.28161882 -4.84862798 1396.35362242 -8.56730652 1396.42449951 C-14.96645885 1396.54526098 -21.36568964 1396.66047701 -27.76501465 1396.771698 C-37.87201987 1396.94750917 -47.9788119 1397.13399489 -58.08557129 1397.32336426 C-58.93432131 1397.33926586 -59.78307132 1397.35516745 -60.65754104 1397.37155092 C-64.97402732 1397.45247393 -69.29051014 1397.53357977 -73.60699081 1397.61480141 C-77.09720955 1397.68042279 -80.5874364 1397.74558528 -84.07767105 1397.81035423 C-108.08585319 1398.25602393 -132.09229659 1398.75163361 -156.09799933 1399.31543994 C-158.37431745 1399.36887359 -160.65064078 1399.42207946 -162.92696571 1399.47522163 C-175.84746402 1399.77702257 -188.76791469 1400.08073821 -201.6880188 1400.39901733 C-251.72018698 1401.6299491 -251.72018698 1401.6299491 -276.51617432 1401.76117897 C-278.47198086 1401.77287659 -280.4277667 1401.78935422 -282.38348389 1401.81140709 C-298.57796012 1401.98168397 -314.69709727 1400.82107104 -330.08752441 1395.38464355 C-330.95304932 1395.08606445 -331.81857422 1394.78748535 -332.71032715 1394.4798584 C-362.91808863 1383.64883159 -388.31256187 1360.93794265 -402.61291504 1332.19763184 C-419.04269844 1297.25916512 -415.96046803 1264.26488407 -408.31018066 1227.4822998 C-407.78169854 1224.91113946 -407.25393742 1222.33983083 -406.72683716 1219.76838684 C-405.59630378 1214.25881388 -404.45987653 1208.75048433 -403.31930542 1203.24298096 C-401.64573584 1195.16166148 -399.98161701 1187.07841651 -398.31950009 1178.99473476 C-395.46910032 1165.1331204 -392.61027545 1151.27325626 -389.74718583 1137.414258 C-387.50368784 1126.55427585 -385.26282316 1115.69375667 -383.02600098 1104.83239746 C-382.88815488 1104.16306116 -382.75030879 1103.49372486 -382.60828555 1102.80410564 C-381.91909169 1099.45748693 -381.22996877 1096.11085362 -380.54088783 1092.76421165 C-379.17254542 1086.11866392 -377.80380755 1079.47319765 -376.43493652 1072.82775879 C-376.29977831 1072.17159958 -376.1646201 1071.51544037 -376.02536619 1070.83939755 C-373.95348733 1060.78128896 -371.87959316 1050.7235971 -369.80456543 1040.6661377 C-363.87405018 1011.9208158 -357.95085713 983.17401417 -352.04455566 954.42370605 C-351.8113394 953.28847574 -351.8113394 953.28847574 -351.5734117 952.13031149 C-349.5200285 942.13484689 -347.4670846 932.13929207 -345.41424942 922.1437149 C-342.56617718 908.27602163 -339.71779819 894.40839138 -336.86877441 880.54089355 C-336.71311138 879.78320757 -336.55744835 879.02552159 -336.39706826 878.24487543 C-329.46294988 844.49400044 -322.50768131 810.74749803 -315.54845428 777.00179291 C-313.46742472 766.91072224 -311.38658636 756.81961219 -309.30627441 746.72839355 C-309.16801868 746.05773991 -309.02976295 745.38708626 -308.88731766 744.69610977 C-304.26881669 722.29187884 -299.65973897 699.88571867 -295.05627441 677.47839355 C-294.90062389 676.72076595 -294.74497337 675.96313835 -294.58460617 675.18255234 C-292.21020829 663.6249922 -289.83632559 652.06732626 -287.46252441 640.50964355 C-277.84226109 593.670021 -268.20638317 546.83366362 -258.54845428 500.00179291 C-256.46742472 489.91072224 -254.38658636 479.81961219 -252.30627441 469.72839355 C-252.16801868 469.05773991 -252.02976295 468.38708626 -251.88731766 467.69610977 C-245.20579022 435.2841898 -238.54639886 402.86772652 -231.88824528 370.45099843 C-223.96242464 331.86244912 -216.03496371 293.27423876 -208.09143066 254.68933105 C-207.94221137 253.96450397 -207.79299208 253.23967689 -207.63925099 252.49288535 C-204.30939844 236.31868206 -200.97674781 220.14505981 -197.63757324 203.97277832 C-197.50094768 203.31104933 -197.36432213 202.64932034 -197.2235564 201.96753895 C-196.01742563 196.1258484 -194.81120715 190.28417598 -193.60456657 184.44259071 C-190.64483735 170.11318209 -187.69591251 155.78169515 -184.77253723 141.44482422 C-183.5413251 135.40753651 -182.30326178 129.3716628 -181.06250286 123.33633041 C-180.29489607 119.6004008 -179.53082982 115.86384794 -178.7772522 112.12506104 C-170.78558506 72.49766185 -157.09009977 38.07556925 -122.40002441 14.50964355 C-83.83950049 -10.84932705 -43.46725383 -8.74967357 0 0 Z " fill="#762B7F" transform="translate(1173.4625244140625,472.4903564453125)"/>
<path d="M0 0 C14.01413689 11.45699563 24.70586685 24.52201289 30.5625 41.875 C30.93117188 42.9475 31.29984375 44.02 31.6796875 45.125 C34.39979961 54.33764248 35.0372591 63.3625399 35.5625 72.9375 C37.3776555 105.60930413 52.00476799 127.71142816 75.5625 149.875 C79.1337703 153.00197053 82.82302016 155.95208151 86.5625 158.875 C87.16416992 159.34776367 87.76583984 159.82052734 88.38574219 160.30761719 C98.96261469 168.59645317 109.81874629 176.44054108 120.90087891 184.03857422 C123.72327811 185.98593129 126.52329261 187.96331388 129.32421875 189.94140625 C131.21536113 191.25373569 133.107268 192.56496425 135 193.875 C135.88204102 194.505271 136.76408203 195.13554199 137.67285156 195.78491211 C138.91566895 196.63388062 138.91566895 196.63388062 140.18359375 197.5 C140.9098999 198.00789062 141.63620605 198.51578125 142.38452148 199.0390625 C144.600775 200.13795139 144.600775 200.13795139 147.11767578 199.16186523 C149.1870805 198.07260697 151.13170734 196.98064264 153.05859375 195.66015625 C153.69240967 195.22711182 154.32622559 194.79406738 154.97924805 194.34790039 C155.64609619 193.88246826 156.31294434 193.41703613 157 192.9375 C157.70229736 192.44950928 158.40459473 191.96151855 159.12817383 191.45874023 C185.52592859 172.94197676 212.19307093 150.35618568 219.15356445 117.34545898 C219.92292813 112.69758373 220.14157446 108.00970685 220.4375 103.3125 C222.44349811 76.28214026 232.46933703 52.58676331 253.14453125 34.6328125 C274.51403889 18.16515593 299.92810494 13.01686857 326.45751953 16.22509766 C343.13628053 19.14127428 358.19729918 27.48377047 370.5625 38.875 C371.1915625 39.42414063 371.820625 39.97328125 372.46875 40.5390625 C387.30227845 54.22636375 397.15106692 75.8933166 398.01582336 95.99690247 C398.0886003 99.45849344 398.06044939 102.91345597 398 106.375 C397.9892746 107.47751099 397.9892746 107.47751099 397.97833252 108.60229492 C397.40471086 165.61997993 376.45831721 222.26428846 339.5625 265.875 C338.76972656 266.83921875 337.97695313 267.8034375 337.16015625 268.796875 C326.82775183 281.29322487 315.87403765 293.30131545 303.5625 303.875 C301.8520282 305.39342781 300.14361726 306.91418102 298.4375 308.4375 C297.1461196 309.58365596 295.85456642 310.72961745 294.5625 311.875 C296.21321648 315.85783337 298.97882599 318.76640796 301.8125 321.9375 C313.92681105 335.82585782 324.48823495 350.84154832 333.5625 366.875 C334.04960449 367.73544922 334.53670898 368.59589844 335.03857422 369.48242188 C368.32286078 429.05840797 376.38619375 500.7367326 358.3125 566.5 C347.27999785 605.08252505 328.24690405 639.88473877 301.5625 669.875 C300.7271875 670.82117187 299.891875 671.76734375 299.03125 672.7421875 C287.73145673 685.30129508 275.94910814 697.53291558 262.5625 707.875 C261.32834809 708.88980069 260.09827264 709.90961118 258.875 710.9375 C257.7303125 711.8965625 257.7303125 711.8965625 256.5625 712.875 C259.51513629 716.0244787 262.6099168 718.76229431 266 721.4375 C288.16772385 738.98831238 309.25335021 758.44772646 326.25195312 781.12744141 C327.58892764 782.91024013 328.94260143 784.67953857 330.296875 786.44921875 C357.10622394 821.84608529 373.36132404 862.22911132 380.5625 905.875 C380.69672363 906.66567871 380.83094727 907.45635742 380.96923828 908.27099609 C391.59214133 973.96565811 372.19276726 1043.46441071 333.95288086 1097.01660156 C329.15009804 1103.58807625 323.93834497 1109.76920803 318.5625 1115.875 C317.96179688 1116.57496094 317.36109375 1117.27492188 316.7421875 1117.99609375 C315.03765545 1119.97648002 313.30573029 1121.92857109 311.5625 1123.875 C310.71558594 1124.82632812 309.86867188 1125.77765625 308.99609375 1126.7578125 C299.57838408 1137.21658733 289.45029323 1146.95167099 278.5625 1155.875 C281.67982202 1160.25147562 284.94140286 1164.3353285 288.625 1168.25 C319.83170099 1202.45633329 340.74781517 1248.59832755 348.5625 1293.875 C348.72476074 1294.78701172 348.88702148 1295.69902344 349.05419922 1296.63867188 C355.79130052 1336.26867954 352.5623112 1378.90073656 340.875 1417.25 C340.57166748 1418.24978882 340.57166748 1418.24978882 340.26220703 1419.26977539 C339.75942016 1420.82690758 339.16910295 1422.35529998 338.5625 1423.875 C336.11729181 1425.09760409 334.8639491 1424.88986021 332.14819336 1424.68481445 C330.74211571 1424.5837162 330.74211571 1424.5837162 329.30763245 1424.48057556 C328.26638718 1424.40061844 327.22514191 1424.32066132 326.15234375 1424.23828125 C323.84167515 1424.07283079 321.53096291 1423.90798909 319.22021484 1423.74365234 C317.96988464 1423.65315613 316.71955444 1423.56265991 315.43133545 1423.46942139 C287.12037071 1421.43920378 258.79286945 1419.99508982 230.4375 1418.75 C229.48210327 1418.7079607 228.52670654 1418.6659214 227.5423584 1418.62260818 C196.88653558 1417.27563713 166.22725875 1416.00165681 135.5625 1414.875 C137.21620769 1411.32079701 138.97305844 1409.46075849 142 1406.9375 C158.76782112 1392.12955407 172.03771884 1371.77457225 173.78369141 1348.98828125 C174.9192696 1319.33760966 166.62081476 1298.10220134 146.625 1276.1875 C139.85902734 1268.92703299 132.86652561 1262.35014267 124.5625 1256.875 C67.92787364 1292.86905686 67.92787364 1292.86905686 37.02978516 1350.20385742 C34.54779908 1364.39163678 35.53691562 1380.40506637 40.5625 1393.875 C40.92085937 1394.87015625 41.27921875 1395.8653125 41.6484375 1396.890625 C43.03207486 1400.53177595 44.39514687 1403.6239703 46.5625 1406.875 C46.5625 1407.865 46.5625 1408.855 46.5625 1409.875 C-11.83218874 1405.03992295 -69.32780592 1391.46308284 -126.07983398 1377.45489502 C-128.21148435 1376.93059114 -130.34455038 1376.41273343 -132.47851562 1375.89794922 C-133.57357422 1375.63127441 -134.66863281 1375.36459961 -135.796875 1375.08984375 C-137.14217285 1374.76487915 -137.14217285 1374.76487915 -138.51464844 1374.43334961 C-140.4375 1373.875 -140.4375 1373.875 -141.4375 1372.875 C-143.29151261 1347.61548269 -139.60441035 1322.31177074 -133.4375 1297.875 C-133.12304932 1296.62589844 -133.12304932 1296.62589844 -132.80224609 1295.3515625 C-121.28879378 1250.96405736 -95.64222533 1212.70673928 -64.75 1179.5 C-64.14454346 1178.84604248 -63.53908691 1178.19208496 -62.9152832 1177.51831055 C-59.24260796 1173.61177033 -55.41363297 1170.00985422 -51.34545898 1166.51806641 C-48.10010951 1163.72328689 -44.97841667 1160.79660699 -41.83984375 1157.8828125 C-38.45930361 1154.76231391 -34.99011879 1151.79510506 -31.4375 1148.875 C-34.39013629 1145.7255213 -37.4849168 1142.98770569 -40.875 1140.3125 C-49.55667879 1133.45033473 -58.21409355 1126.40183115 -65.89453125 1118.41796875 C-67.5204797 1116.7920203 -69.23287814 1115.34574922 -71 1113.875 C-121.52909916 1070.06364234 -151.80501493 1003.45323957 -157.125 937.5 C-159.60876361 889.94627586 -151.91355406 842.0889151 -129.41552734 799.73388672 C-128.45530418 797.90883949 -127.53095839 796.06940102 -126.61328125 794.22265625 C-117.02338058 775.20298312 -103.86376607 757.72299771 -89.4609375 742.08203125 C-87.69301137 740.15369483 -85.99903954 738.18652022 -84.3125 736.1875 C-75.06289513 725.57319933 -64.76037607 715.26231561 -53.4375 706.875 C-55.08824418 702.8920998 -57.85397705 699.98376978 -60.6875 696.8125 C-107.76372701 642.79660638 -130.46252293 574.40144019 -126.12890625 502.9765625 C-120.78765551 431.39870357 -85.59193721 365.61597502 -31.4375 318.875 C-29.68477975 317.29467846 -27.93479111 315.71132224 -26.1875 314.125 C-22.67749256 310.94479192 -19.08748176 307.89203695 -15.4375 304.875 C-16.27410156 304.23175781 -17.11070312 303.58851563 -17.97265625 302.92578125 C-42.70507592 283.78134939 -66.36676077 262.54151095 -85.22607422 237.47607422 C-86.36397506 235.97217383 -87.52689439 234.48729657 -88.69140625 233.00390625 C-123.44969986 188.17254723 -141.39547035 133.38316842 -141.875 76.9375 C-141.88721588 76.16557312 -141.89943176 75.39364624 -141.91201782 74.59832764 C-142.10392457 60.22732511 -140.31015609 46.0681654 -133.75 33.0625 C-133.40751221 32.36366699 -133.06502441 31.66483398 -132.7121582 30.94482422 C-121.8893093 9.60268517 -103.68987208 -5.1612627 -81.4375 -13.125 C-53.59030417 -21.52859164 -23.64787711 -17.49178702 0 0 Z M132.5625 417.0625 C131.85625488 417.5066626 131.15000977 417.9508252 130.42236328 418.40844727 C112.30840348 429.95555056 95.13095068 443.07564943 79.5625 457.875 C78.90765625 458.47699219 78.2528125 459.07898438 77.578125 459.69921875 C61.86986373 474.57883321 51.12733995 495.42610061 50.359375 517.1875 C49.85119822 547.63602833 62.50441603 569.81410656 83.16015625 591.44970703 C88.2818361 596.65520268 93.84227765 601.34733284 99.5625 605.875 C102.98921636 604.60060757 105.93392055 603.13155753 108.9765625 601.109375 C109.81082764 600.55596436 110.64509277 600.00255371 111.50463867 599.43237305 C112.83265503 598.53772339 112.83265503 598.53772339 114.1875 597.625 C115.10958252 597.0060083 116.03166504 596.3870166 116.98168945 595.74926758 C130.12526867 586.86076355 143.00412766 577.77414958 154.5625 566.875 C155.91295899 565.72479919 157.26703275 564.57882656 158.625 563.4375 C176.88376736 547.37417561 188.74777572 526.22419368 190.7265625 501.85449219 C192.18464954 476.73894294 182.52869025 454.8447033 166.16552734 436.29101562 C160.31567247 429.72208827 154.37858383 423.45871153 147.5625 417.875 C146.985 417.37097656 146.4075 416.86695313 145.8125 416.34765625 C140.20892502 411.48493854 138.36730019 413.40114889 132.5625 417.0625 Z M90.0078125 820.1484375 C89.3171167 820.63836182 88.6264209 821.12828613 87.91479492 821.63305664 C87.1797876 822.16664795 86.44478027 822.70023926 85.6875 823.25 C84.92735596 823.7958374 84.16721191 824.3416748 83.3840332 824.90405273 C81.10229001 826.55050113 78.83047704 828.20965251 76.5625 829.875 C75.94391113 830.32794434 75.32532227 830.78088867 74.68798828 831.24755859 C67.05912462 836.86985521 59.90596433 842.9016963 53.05957031 849.4453125 C52.05073719 850.40873826 51.03693793 851.36698726 50.01855469 852.3203125 C32.40994863 868.8359706 20.64552057 889.21429986 19.359375 913.75 C18.83144692 941.60577197 29.90573464 963.5303896 48.85546875 983.3515625 C55.69776194 990.38187231 62.78631865 996.87939316 70.5625 1002.875 C71.48023193 1003.59139648 71.48023193 1003.59139648 72.41650391 1004.32226562 C90.85575659 1018.71518898 110.19824259 1031.77407022 129.5625 1044.875 C135.830981 1041.60667679 141.44538122 1037.92597092 147 1033.5625 C147.73935791 1032.98854492 148.47871582 1032.41458984 149.24047852 1031.82324219 C151.3527811 1030.18005732 153.4582203 1028.52843777 155.5625 1026.875 C156.5421875 1026.11316406 157.521875 1025.35132813 158.53125 1024.56640625 C164.44017753 1019.91967052 170.06607047 1015.00206946 175.5625 1009.875 C176.72458984 1008.79412109 176.72458984 1008.79412109 177.91015625 1007.69140625 C193.34691633 992.83716542 205.04632622 972.35974301 205.80078125 950.6015625 C206.37422491 919.41032344 195.26727348 898.46915349 173.93359375 876.12109375 C167.82631597 869.87481676 161.44977858 864.2413739 154.5625 858.875 C153.96228027 858.40368652 153.36206055 857.93237305 152.74365234 857.44677734 C141.31525265 848.49000151 129.54314604 840.07459008 117.5625 831.875 C116.13429932 830.89490967 116.13429932 830.89490967 114.67724609 829.89501953 C111.79119132 827.92045115 108.89733241 825.95797464 106 824 C105.10120117 823.38648682 104.20240234 822.77297363 103.27636719 822.14086914 C102.02388184 821.3015686 102.02388184 821.3015686 100.74609375 820.4453125 C100.00931396 819.94789551 99.27253418 819.45047852 98.51342773 818.93798828 C94.95700414 817.00022476 93.04936869 817.97247514 90.0078125 820.1484375 Z " fill="#EF4655" transform="translate(291.4375,452.125)"/>
<path d="M0 0 C0.95310059 0.17160645 1.90620117 0.34321289 2.88818359 0.52001953 C54.29676192 9.79096218 102.94998726 33.46886411 141.0859375 69.296875 C143.32170466 71.37080378 145.5826755 73.36969047 147.89453125 75.35546875 C151.93964355 78.88156026 155.65712395 82.63723786 159.3125 86.5625 C159.96130127 87.25794922 160.61010254 87.95339844 161.27856445 88.66992188 C166.75424898 94.60827372 171.80755806 100.78251571 176.65966797 107.23583984 C178.02109555 109.02776621 179.41487161 110.79010036 180.81640625 112.55078125 C218.0822648 159.95105156 249.22509124 228.60149621 242.5390625 290.0625 C241.9374761 294.43533185 241.04806221 298.71395199 240 303 C239.81195801 303.77827148 239.62391602 304.55654297 239.43017578 305.35839844 C232.98966009 331.02823426 220.40996441 353.13046233 202 372 C200.85337891 373.25683594 200.85337891 373.25683594 199.68359375 374.5390625 C175.37279749 400.4541245 138.9223123 414.02125831 104 416 C99.1214996 416.08405804 94.24982566 416.01576295 89.37158203 415.93383789 C87.93420933 415.9138507 86.49682977 415.89435195 85.05944443 415.87529564 C81.15504847 415.82195124 77.25080146 415.76112715 73.34653997 415.69879413 C70.00534165 415.64639515 66.66408558 415.59839113 63.32282221 415.5503481 C17.62008252 414.89230692 -28.08034054 414.05396118 -73.78027344 413.22680664 C-85.21020507 413.02018048 -96.640206 412.81781756 -108.0703125 412.62109375 C-109.43705408 412.5975335 -109.43705408 412.5975335 -110.83140659 412.5734973 C-140.22346742 412.06916752 -169.60302884 411.79116906 -199 412 C-195.70676566 435.53911259 -190.63228842 457.621648 -180 479 C-179.50886719 479.99773437 -179.01773437 480.99546875 -178.51171875 482.0234375 C-172.23230063 494.08699569 -164.48887784 505.25965013 -155 515 C-154.27039062 515.77988281 -153.54078125 516.55976562 -152.7890625 517.36328125 C-141.87030942 528.760927 -122.98225923 542.271014 -106.56030273 543.12719727 C-100.16414534 543.20337558 -93.90305662 542.7447442 -87.5625 541.9375 C-86.55590332 541.80956055 -85.54930664 541.68162109 -84.51220703 541.54980469 C-45.58153189 536.27872682 -5.96957428 527.42630297 30.8125 513.6875 C55.59299205 504.52649264 81.74275909 503.58554599 106.1796875 514.60546875 C129.54786799 526.16009539 146.70943886 544.31956144 155.29882812 569.13134766 C157.91272759 577.29079072 159.28637075 585.45627209 160 594 C160.0721875 594.82242188 160.144375 595.64484375 160.21875 596.4921875 C161.24908401 621.30606486 150.77376652 644.61092648 134.53515625 662.75390625 C120.22660863 677.86087503 101.56795529 685.89126456 82.0625 692.25 C81.36946777 692.47822449 80.67643555 692.70644897 79.96240234 692.94158936 C28.58996943 709.80702149 -25.0891562 722.17417197 -79 727 C-79.76183594 727.07057617 -80.52367187 727.14115234 -81.30859375 727.21386719 C-148.95799391 733.2562758 -213.04020911 708.76717878 -264.92578125 666.00756836 C-276.67808487 656.15262021 -288.05156275 645.68575625 -298 634 C-299.2684375 632.56333984 -299.2684375 632.56333984 -300.5625 631.09765625 C-312.4387684 617.53696199 -322.20275462 602.49832776 -331.64648438 587.18261719 C-332.84617348 585.24805358 -334.0664502 583.32914167 -335.296875 581.4140625 C-387.70029668 498.68804539 -394.58278947 391.89257754 -374.4765625 290.765625 C-368.1229583 263.14709807 -358.65149757 235.8156002 -347 210 C-346.60635254 209.11924805 -346.21270508 208.23849609 -345.80712891 207.33105469 C-330.23872645 172.75582961 -309.28755618 140.27413459 -284 112 C-283.19046875 111.07960938 -282.3809375 110.15921875 -281.546875 109.2109375 C-275.41601004 102.36673291 -268.96821303 95.83640001 -262.5 89.3125 C-261.63383057 88.43327881 -260.76766113 87.55405762 -259.87524414 86.64819336 C-254.67797811 81.44407916 -249.30957595 76.6405282 -243.5559082 72.05786133 C-240.87107173 69.89619482 -238.27893978 67.64737362 -235.6875 65.375 C-195.209532 31.59065431 -144.48329603 9.74200491 -93 0 C-91.62231445 -0.26901123 -91.62231445 -0.26901123 -90.21679688 -0.54345703 C-61.62976112 -5.87046388 -28.47909287 -5.57613566 0 0 Z " fill="#C52164" transform="translate(1943,1141)"/>
<path d="M0 0 C19.30610268 15.54475066 33.56842671 34.6522331 41.5625 58.1875 C41.84061523 59.00492676 42.11873047 59.82235352 42.40527344 60.66455078 C47.29844726 75.87153375 49.01474653 91.8909768 51.1730957 107.65478516 C51.50510833 110.05472113 51.83752238 112.4546016 52.17030334 114.85443115 C52.88500381 120.0150187 53.59694039 125.17597937 54.30632973 130.33729935 C55.34707569 137.90936559 56.39306674 145.48070063 57.44019224 153.05188696 C59.15971091 165.48576444 60.87521378 177.92019249 62.58813477 190.35498047 C64.2160979 202.17295431 65.84568685 213.99070169 67.4777832 225.80810547 C67.57673237 226.52459118 67.67568153 227.2410769 67.77762915 227.9792743 C68.772753 235.18478914 69.76812711 242.39026936 70.76381395 249.59570642 C71.25952123 253.18307655 71.75513668 256.77045936 72.2507019 260.35784912 C72.34851321 261.06588384 72.44632452 261.77391856 72.54709981 262.50340888 C73.92409769 272.47240501 75.29643067 282.44203431 76.66559272 292.41210946 C77.53221179 298.72179968 78.39994216 305.03133703 79.26806641 311.34082031 C79.36231027 312.0259244 79.45655413 312.71102849 79.55365387 313.4168933 C82.14972297 332.28497664 84.80374248 351.14381532 87.52306378 369.99460816 C88.52685366 376.96684949 89.52010936 383.94060134 90.51352447 390.9143275 C91.27593942 396.25717744 92.04626097 401.59860793 92.83706093 406.93733597 C101.75798464 467.21264457 101.75798464 467.21264457 94.75 491.6875 C94.55664062 492.38520508 94.36328125 493.08291016 94.1640625 493.80175781 C88.26851454 514.64543124 77.60960993 531.9830293 62.75 547.6875 C61.97914062 548.5228125 61.20828125 549.358125 60.4140625 550.21875 C39.22849023 572.4327481 8.06996664 584.30342164 -22.25 585.6875 C-23.40435547 585.749375 -23.40435547 585.749375 -24.58203125 585.8125 C-60.1544307 586.78210544 -90.7157189 571.95731419 -116.5234375 548.6328125 C-122.19200853 543.2331065 -126.68834245 537.02313549 -131.25 530.6875 C-131.72888672 531.05319092 -132.20777344 531.41888184 -132.70117188 531.7956543 C-179.46639714 567.22608452 -234.35527014 586.04469766 -293.34350586 578.16601562 C-326.25981637 573.24415314 -357.0111425 560.7364279 -384.25 541.6875 C-384.92514648 541.21586426 -385.60029297 540.74422852 -386.29589844 540.25830078 C-396.74295192 532.87434939 -406.10529907 524.61524184 -415.25 515.6875 C-415.83442871 515.12353516 -416.41885742 514.55957031 -417.02099609 513.97851562 C-424.30820657 506.93864105 -431.02566238 499.70301391 -437.25 491.6875 C-438.44882812 490.17929688 -438.44882812 490.17929688 -439.671875 488.640625 C-478.99129549 438.84472413 -500.59780532 376.51501448 -506.25 313.6875 C-506.3442627 312.64174805 -506.43852539 311.59599609 -506.53564453 310.51855469 C-507.33665286 300.61700266 -507.49299954 290.74069936 -507.5 280.8125 C-507.50067474 279.94299713 -507.50134949 279.07349426 -507.50204468 278.17764282 C-507.43386352 222.29394596 -495.08615729 167.20146476 -469.20751953 117.53759766 C-468.27486966 115.7355526 -467.3680825 113.92239694 -466.46484375 112.10546875 C-458.05056117 95.45125767 -447.16000084 80.01625235 -435.25 65.6875 C-434.55124756 64.83647705 -434.55124756 64.83647705 -433.83837891 63.96826172 C-423.12243722 50.95475255 -411.5453365 39.08461528 -398.25 28.6875 C-397.46625 28.03652344 -396.6825 27.38554688 -395.875 26.71484375 C-353.92042528 -7.99428632 -299.03178283 -24.35765107 -244.99853516 -19.36499023 C-218.50322718 -16.56828836 -190.27699352 -9.1220169 -167.4296875 5.01953125 C-164.51944738 6.87674567 -164.51944738 6.87674567 -162.0234375 6.625 C-159.96277305 5.53566197 -158.54373966 4.31848537 -156.875 2.6875 C-144.39315443 -8.55305706 -128.50744584 -16.38800569 -112.5 -21.1875 C-111.86408936 -21.37860352 -111.22817871 -21.56970703 -110.57299805 -21.76660156 C-72.91099325 -32.25391155 -30.78245861 -23.87106981 0 0 Z " fill="#FBAE24" transform="translate(4999.25,1285.3125)"/>
<path d="M0 0 C24.86392489 20.81710677 41.41711792 46.92954614 46.69918823 79.09461975 C46.8725863 80.1446345 47.04598436 81.19464926 47.22463691 82.27648264 C49.2540217 94.73323106 50.98400632 107.23016396 52.70751953 119.73217773 C53.07583598 122.38575099 53.44441357 125.03928679 53.81330872 127.69277954 C54.70380453 134.10246675 55.59086373 140.51262483 56.47673364 146.92295282 C57.52012842 154.47199481 58.56725595 162.02051776 59.61451767 169.56902409 C61.49465832 183.12158103 63.37179187 196.67455269 65.24707031 210.2277832 C67.04115741 223.19418049 68.83691088 236.16034527 70.63476562 249.1262207 C70.79956456 250.31477988 70.79956456 250.31477988 70.96769276 251.52735035 C71.95916364 258.67801146 72.9507067 265.82866256 73.94238424 272.97929502 C76.19191379 289.20028668 78.4393863 305.42155376 80.67650482 321.64426233 C81.4899876 327.54322612 82.30384802 333.44213783 83.11777109 339.34104088 C83.3154218 340.77359083 83.51304745 342.20614425 83.71064764 343.63870117 C86.0706399 360.74734483 88.45620447 377.85185311 90.91290784 394.94692743 C91.64917568 400.08161236 92.37666491 405.2175488 93.10372961 410.35354406 C93.62458821 414.02548167 94.15167509 417.69621649 94.69751358 421.36453056 C100.75688533 462.11714415 98.94658423 499.90139651 74.2578125 534.26953125 C70.08668552 539.60266301 65.52498884 544.49791505 60.83203125 549.37109375 C60.25066406 550.015625 59.66929687 550.66015625 59.0703125 551.32421875 C38.9510769 573.01447778 6.69841136 584.05337026 -22.16796875 585.37109375 C-23.32232422 585.43296875 -23.32232422 585.43296875 -24.5 585.49609375 C-57.50503404 586.39571989 -89.11273647 573.58389942 -113.16796875 551.37109375 C-114.07546875 550.53449219 -114.98296875 549.69789063 -115.91796875 548.8359375 C-121.78380478 543.19364705 -126.59283952 537.093211 -131.16796875 530.37109375 C-136.09767627 533.54552662 -140.81357725 536.86418149 -145.41796875 540.49609375 C-187.21281122 572.00134302 -241.97145519 584.73373452 -293.47460938 577.77929688 C-317.34304537 574.22979384 -339.95541291 566.89282671 -361.16796875 555.37109375 C-361.82990234 555.01934082 -362.49183594 554.66758789 -363.17382812 554.30517578 C-377.31440881 546.77819204 -389.98820785 537.77891394 -402.16796875 527.37109375 C-402.91691406 526.73429687 -403.66585937 526.0975 -404.4375 525.44140625 C-417.35645727 514.12906547 -429.7434548 501.95719547 -439.90576172 488.08642578 C-441.21339562 486.3093589 -442.54934969 484.55647002 -443.890625 482.8046875 C-475.87923942 440.65067713 -494.80340233 389.49479697 -503.41796875 337.62109375 C-503.64504517 336.25887695 -503.64504517 336.25887695 -503.87670898 334.86914062 C-506.67222723 316.77807628 -507.54907996 298.65363027 -507.48046875 280.37109375 C-507.47864594 279.35261353 -507.47682312 278.3341333 -507.47494507 277.28479004 C-507.25552139 204.03587558 -486.11847466 129.36439024 -440.16796875 71.37109375 C-439.45382813 70.46488281 -438.7396875 69.55867188 -438.00390625 68.625 C-425.64266794 53.22805123 -411.86394091 38.40116101 -396.16796875 26.37109375 C-395.6354248 25.95682129 -395.10288086 25.54254883 -394.55419922 25.11572266 C-349.84878405 -9.51270475 -295.42377178 -25.73155908 -239.12988281 -19.03125 C-220.1092072 -16.44749848 -201.30245636 -11.68372616 -184.03125 -3.21875 C-183.4204509 -2.91957672 -182.80965179 -2.62040344 -182.18034363 -2.31216431 C-179.14663736 -0.81622784 -176.13702361 0.71131777 -173.1394043 2.27929688 C-172.04539307 2.83681641 -170.95138184 3.39433594 -169.82421875 3.96875 C-168.85291016 4.47929932 -167.88160156 4.98984863 -166.88085938 5.51586914 C-164.17255498 6.64022332 -164.17255498 6.64022332 -161.42578125 5.61157227 C-159.13819426 4.35473516 -157.52999132 3.06579763 -155.66796875 1.24609375 C-143.73014341 -9.49127988 -127.72462151 -16.92554586 -112.41796875 -21.50390625 C-111.78213867 -21.6949292 -111.14630859 -21.88595215 -110.49121094 -22.08276367 C-72.85152162 -32.56729057 -30.62158985 -24.17052988 0 0 Z " fill="#F48146" transform="translate(4027.16796875,1285.62890625)"/>
<path d="M0 0 C3.72839275 1.4432488 6.37010066 3.8826745 9.2890625 6.53125 C10.53153772 7.63005431 11.77503913 8.72769928 13.01953125 9.82421875 C13.6336084 10.36868652 14.24768555 10.9131543 14.88037109 11.47412109 C17.3977886 13.67177903 19.99312931 15.75483878 22.6015625 17.84375 C26.29097467 20.83735198 29.69440603 23.93990937 32.9921875 27.35546875 C34.78977175 29.15725297 36.67066552 30.81102256 38.6015625 32.46875 C44.73702984 37.77510013 50.36491976 43.51290689 55.640625 49.671875 C57.18089436 51.46786475 58.74204596 53.24596882 60.3125 55.015625 C94.73257286 94.02849847 116.22077352 140.85698999 124.6640625 192.03125 C124.79828613 192.82192871 124.93250977 193.61260742 125.07080078 194.42724609 C135.69370383 260.12190811 116.29432976 329.62066071 78.05444336 383.17285156 C73.25166054 389.74432625 68.03990747 395.92545803 62.6640625 402.03125 C62.06335938 402.73121094 61.46265625 403.43117188 60.84375 404.15234375 C59.13921795 406.13273002 57.40729279 408.08482109 55.6640625 410.03125 C54.81714844 410.98257812 53.97023438 411.93390625 53.09765625 412.9140625 C43.67994658 423.37283733 33.55185573 433.10792099 22.6640625 442.03125 C25.78138452 446.40772562 29.04296536 450.4915785 32.7265625 454.40625 C63.93326349 488.61258329 84.84937767 534.75457755 92.6640625 580.03125 C92.82632324 580.94326172 92.98858398 581.85527344 93.15576172 582.79492188 C99.89286302 622.42492954 96.6638737 665.05698656 84.9765625 703.40625 C84.77434082 704.07277588 84.57211914 704.73930176 84.36376953 705.42602539 C83.86098266 706.98315758 83.27066545 708.51154998 82.6640625 710.03125 C80.21885431 711.25385409 78.9655116 711.04611021 76.24975586 710.84106445 C75.31237076 710.77366562 74.37498566 710.70626678 73.40919495 710.63682556 C71.84732704 710.51688988 71.84732704 710.51688988 70.25390625 710.39453125 C67.94323765 710.22908079 65.63252541 710.06423909 63.32177734 709.89990234 C62.07144714 709.80940613 60.82111694 709.71890991 59.53289795 709.62567139 C31.22193321 707.59545378 2.89443195 706.15133982 -25.4609375 704.90625 C-26.89403259 704.84319105 -26.89403259 704.84319105 -28.3560791 704.77885818 C-59.01190192 703.43188713 -89.67117875 702.15790681 -120.3359375 701.03125 C-118.68222981 697.47704701 -116.92537906 695.61700849 -113.8984375 693.09375 C-97.13061638 678.28580407 -83.86071866 657.93082225 -82.11474609 635.14453125 C-80.9791679 605.49385966 -89.27762274 584.25845134 -109.2734375 562.34375 C-116.03941016 555.08328299 -123.03191189 548.50639267 -131.3359375 543.03125 C-187.97056386 579.02530686 -187.97056386 579.02530686 -218.86865234 636.36010742 C-221.35063842 650.54788678 -220.36152188 666.56131637 -215.3359375 680.03125 C-214.97757813 681.02640625 -214.61921875 682.0215625 -214.25 683.046875 C-212.86636264 686.68802595 -211.50329063 689.7802203 -209.3359375 693.03125 C-209.3359375 694.02125 -209.3359375 695.01125 -209.3359375 696.03125 C-267.73062624 691.19617295 -325.22624342 677.61933284 -381.97827148 663.61114502 C-384.10992185 663.08684114 -386.24298788 662.56898343 -388.37695312 662.05419922 C-389.47201172 661.78752441 -390.56707031 661.52084961 -391.6953125 661.24609375 C-393.04061035 660.92112915 -393.04061035 660.92112915 -394.41308594 660.58959961 C-396.3359375 660.03125 -396.3359375 660.03125 -397.3359375 659.03125 C-399.18995011 633.77173269 -395.50284785 608.46802074 -389.3359375 584.03125 C-389.12630371 583.19851563 -388.91666992 582.36578125 -388.70068359 581.5078125 C-377.18723128 537.12030736 -351.54066283 498.86298928 -320.6484375 465.65625 C-320.04298096 465.00229248 -319.43752441 464.34833496 -318.8137207 463.67456055 C-315.13863341 459.76545469 -311.30627336 456.16357207 -307.23510742 452.66992188 C-303.54258246 449.483879 -300.02087945 446.10995245 -296.4609375 442.77734375 C-292.94723636 439.59989017 -289.14995996 436.83386723 -285.3359375 434.03125 C-284.11836558 433.11517362 -282.90218462 432.19724515 -281.6875 431.27734375 C-258.66202592 413.90363288 -234.94522683 398.07453329 -210.3359375 383.03125 C-209.24684082 382.36544922 -208.15774414 381.69964844 -207.03564453 381.01367188 C-195.10300578 373.72480375 -183.14730755 366.48077096 -171.0859375 359.40625 C-163.15785971 354.75179114 -155.31982948 349.96559789 -147.5234375 345.09375 C-146.04665527 344.17118408 -146.04665527 344.17118408 -144.54003906 343.22998047 C-139.32104049 339.95312209 -134.17111219 336.60733523 -129.10668945 333.09545898 C-127.3359375 332.03125 -127.3359375 332.03125 -125.3359375 332.03125 C-125.3359375 331.37125 -125.3359375 330.71125 -125.3359375 330.03125 C-122.97221299 328.28348964 -120.60091744 326.64608812 -118.1484375 325.03125 C-88.75732996 305.2396968 -59.64233601 281.65055668 -51.7578125 245.37109375 C-48.58241978 220.23256807 -53.81813513 197.70322327 -69.27734375 177.54296875 C-78.86220334 165.8483488 -89.42525174 155.34109123 -101.3359375 146.03125 C-101.93760742 145.55848633 -102.53927734 145.08572266 -103.15917969 144.59863281 C-116.53480532 134.11648253 -130.39431828 124.36029731 -144.49609375 114.8828125 C-145.5116333 114.19815918 -146.52717285 113.51350586 -147.57348633 112.80810547 C-149.55465373 111.47512453 -151.54006949 110.14843238 -153.5300293 108.82861328 C-154.41988525 108.23032715 -155.30974121 107.63204102 -156.2265625 107.015625 C-157.02094727 106.48678711 -157.81533203 105.95794922 -158.63378906 105.41308594 C-159.19549805 104.95708008 -159.75720703 104.50107422 -160.3359375 104.03125 C-160.3359375 103.37125 -160.3359375 102.71125 -160.3359375 102.03125 C-158.76074219 100.78881836 -158.76074219 100.78881836 -156.5078125 99.37109375 C-155.66041504 98.83395752 -154.81301758 98.29682129 -153.93994141 97.7434082 C-152.99812012 97.157771 -152.05629883 96.57213379 -151.0859375 95.96875 C-150.10157715 95.3502417 -149.1172168 94.7317334 -148.10302734 94.09448242 C-130.93334013 83.34838204 -113.56802857 72.92852645 -96.13452148 62.61804199 C-48.14868677 34.86842552 -48.14868677 34.86842552 -4.29296875 1.19140625 C-2.3359375 0.03125 -2.3359375 0.03125 0 0 Z " fill="#F58544" transform="translate(547.3359375,1165.96875)"/>
<path d="M0 0 C29.94330509 15.69608735 53.45982992 72.9416873 62.9375 103.015625 C83.21436528 170.29628803 77.9370059 243.58137464 44.9375 306.015625 C34.87888814 324.36970124 22.84430354 341.38594595 8.9375 357.015625 C8.1021875 357.96179687 7.266875 358.90796875 6.40625 359.8828125 C-4.90679264 372.45664604 -16.71309732 384.60217342 -30.0625 395.015625 C-31.23563717 396.02901583 -32.40294333 397.0492226 -33.5625 398.078125 C-37.10504732 401.13233052 -40.86808026 403.83864012 -44.66796875 406.5625 C-47.25421654 408.42026049 -49.81201751 410.31324182 -52.36328125 412.21875 C-63.03817771 420.18146504 -73.8770448 427.78731142 -85.0625 435.015625 C-85.78276367 435.4811377 -86.50302734 435.94665039 -87.24511719 436.42626953 C-106.71883743 448.95752581 -126.6242183 460.81620364 -146.55422974 472.60333252 C-162.26866477 481.89790382 -177.87667503 491.31376542 -192.91015625 501.6875 C-195.0625 503.015625 -195.0625 503.015625 -197.0625 503.015625 C-197.0625 503.675625 -197.0625 504.335625 -197.0625 505.015625 C-199.01953125 506.46875 -199.01953125 506.46875 -201.875 508.265625 C-215.28023409 517.01230256 -228.17102613 526.37200887 -239.61132812 537.59960938 C-241.05056339 539.00397757 -242.51401894 540.37832555 -243.984375 541.75 C-260.55648532 557.58964135 -271.05513875 577.79827193 -272.265625 600.890625 C-272.79106666 628.61520275 -261.82798267 650.49948993 -242.9921875 670.26953125 C-236.414472 677.04296526 -229.53597847 683.23371391 -222.0625 689.015625 C-221.44922852 689.49467285 -220.83595703 689.9737207 -220.20410156 690.46728516 C-207.62111712 700.28837486 -194.69678783 709.54623766 -181.46875 718.4765625 C-180.89882324 718.86187134 -180.32889648 719.24718018 -179.74169922 719.64416504 C-176.8907547 721.57114765 -174.03653903 723.49288731 -171.17578125 725.40527344 C-170.13808594 726.10426758 -169.10039062 726.80326172 -168.03125 727.5234375 C-167.09732422 728.14879395 -166.16339844 728.77415039 -165.20117188 729.41845703 C-163.0625 731.015625 -163.0625 731.015625 -162.0625 733.015625 C-181.76328437 745.56711656 -201.73395009 757.66507718 -221.78710938 769.64306641 C-251.96319949 787.67332921 -281.82762954 806.02995412 -310.0625 827.015625 C-310.69333496 827.48419922 -311.32416992 827.95277344 -311.97412109 828.43554688 C-315.34854367 830.9469936 -318.71157498 833.47286425 -322.0625 836.015625 C-328.088383 832.09179421 -333.55802999 827.63818174 -339.0625 823.015625 C-339.64193359 822.52932617 -340.22136719 822.04302734 -340.81835938 821.54199219 C-353.05064274 811.24353711 -353.05064274 811.24353711 -358.51953125 805.55859375 C-360.1454797 803.9326453 -361.85787814 802.48637422 -363.625 801.015625 C-414.15409916 757.20426734 -444.43001493 690.59386457 -449.75 624.640625 C-452.23376361 577.08690086 -444.53855406 529.2295401 -422.04052734 486.87451172 C-421.08030418 485.04946449 -420.15595839 483.21002602 -419.23828125 481.36328125 C-409.64838058 462.34360812 -396.48876607 444.86362271 -382.0859375 429.22265625 C-380.31801137 427.29431983 -378.62403954 425.32714522 -376.9375 423.328125 C-366.34289706 411.17038392 -354.52072373 400.22330294 -341.5703125 390.6484375 C-338.27016984 388.19282703 -335.04325959 385.64985819 -331.81445312 383.1015625 C-302.67834876 360.15656444 -270.89696539 340.98549752 -239.03515625 322.11938477 C-230.77187183 317.22545891 -222.52276975 312.31071434 -214.3125 307.328125 C-213.00369873 306.53740601 -213.00369873 306.53740601 -211.66845703 305.73071289 C-205.00827125 301.67503669 -198.52766089 297.37401563 -192.0625 293.015625 C-191.07652832 292.3544165 -190.09055664 291.69320801 -189.07470703 291.01196289 C-163.58213827 274.29849832 -163.58213827 274.29849832 -140.109375 254.94140625 C-138.17641936 253.12280486 -136.17436892 251.45020625 -134.125 249.765625 C-116.98620139 234.70006816 -105.10694791 213.90208353 -103.0625 191.015625 C-101.50422347 164.13535486 -111.12530223 141.9425471 -128.734375 121.97265625 C-133.84805027 116.24910942 -139.13750336 110.90748147 -145.0625 106.015625 C-146.39748484 104.87171623 -147.73089603 103.72596762 -149.0625 102.578125 C-150.0525 101.7325 -151.0425 100.886875 -152.0625 100.015625 C-147.92927686 95.4148049 -143.32612387 92.54186556 -138 89.453125 C-136.1964977 88.38952108 -134.39311561 87.32571332 -132.58984375 86.26171875 C-131.21094971 85.45323486 -131.21094971 85.45323486 -129.80419922 84.62841797 C-125.53955007 82.11975615 -121.30174765 79.56689199 -117.0625 77.015625 C-115.39470418 76.0140349 -113.72673495 75.01273351 -112.05859375 74.01171875 C-111.23343262 73.51655762 -110.40827148 73.02139648 -109.55810547 72.51123047 C-107.07283189 71.02181686 -104.58552109 69.53586176 -102.09765625 68.05078125 C-97.07775412 65.05257147 -92.06810338 62.03763535 -87.0625 59.015625 C-86.27423828 58.54141113 -85.48597656 58.06719727 -84.67382812 57.57861328 C-57.03704656 40.90457313 -28.36868654 23.36555839 -4.41015625 1.61328125 C-2.0625 0.015625 -2.0625 0.015625 0 0 Z " fill="#892979" transform="translate(584.0625,764.984375)"/>
<path d="M0 0 C3.43303433 2.90122993 6.73264495 5.91416468 10 9 C10.81210937 9.73605469 11.62421875 10.47210937 12.4609375 11.23046875 C30.40186395 28.12436952 41.57750863 51.6180905 45.8782196 75.64826965 C46.0488472 76.59694878 46.21947479 77.54562791 46.39527291 78.5230549 C48.548518 90.77594592 50.22176812 103.09891602 51.91245472 115.42235816 C52.4073765 119.02195805 52.90783095 122.62078969 53.407547 126.21972656 C54.27048258 132.43993073 55.13003882 138.66059401 55.98719215 144.88159752 C57.23408169 153.93118813 58.48622681 162.98004579 59.7395279 172.0287504 C61.78389093 186.78989933 63.82405858 201.5516249 65.86157227 216.3137207 C67.82117898 230.51130602 69.78284832 244.70860379 71.74731445 258.90551758 C71.86775955 259.77596176 71.98820465 260.64640594 72.1122996 261.54322722 C72.59704406 265.04636099 73.08180395 268.54949263 73.5665841 272.05262147 C78.49913983 307.69651977 83.42867233 343.34083708 88.34299606 378.9872542 C89.42964468 386.86872871 90.51837918 394.74991218 91.60890919 402.63085073 C92.26939689 407.406372 92.92838322 412.18209956 93.58696878 416.95788348 C93.88764364 419.13591722 94.18894916 421.31386402 94.49095309 423.49171388 C94.90007985 426.44267216 95.30690734 429.39393884 95.71318054 432.34529114 C95.83019628 433.18511571 95.94721203 434.02494028 96.0677737 434.89021409 C99.30724611 458.52424986 98.53576996 481.50439221 90 504 C89.75266113 504.65806641 89.50532227 505.31613281 89.25048828 505.99414062 C77.17094931 537.38729275 52.38692825 561.42851723 21.96875 575.15234375 C-10.21660517 589.00992723 -45.92890576 587.47338229 -78.08203125 574.69140625 C-99.28086113 565.82587044 -118.09206196 549.92297213 -131 531 C-131.38639648 530.43474609 -131.77279297 529.86949219 -132.17089844 529.28710938 C-137.05904615 521.98561798 -140.94915888 514.36340633 -144.3125 506.25 C-144.62590332 505.51386475 -144.93930664 504.77772949 -145.26220703 504.01928711 C-152.12579894 486.6181924 -153.5794069 467.02653615 -156.09619975 448.63962352 C-156.61621794 444.85175931 -157.14411991 441.06499226 -157.67098999 437.27807617 C-158.58109104 430.72894911 -159.48633075 424.17916541 -160.38814926 417.6288929 C-161.69857231 408.11077708 -163.01647022 398.5937075 -164.33604492 389.07685667 C-166.48630819 373.56750935 -168.63054429 358.05733506 -170.77099609 342.54663086 C-172.83341107 327.60150603 -174.89882531 312.65680075 -176.96826172 297.71264648 C-177.09524621 296.79563837 -177.2222307 295.87863026 -177.35306321 294.93383402 C-177.86399745 291.24425422 -178.37495306 287.55467737 -178.88593697 283.86510444 C-184.33605603 244.5120556 -189.78204698 205.15843041 -195.20114537 165.80109622 C-195.79927096 161.45709737 -196.39790999 157.11316952 -196.99674225 152.76926804 C-197.72676292 147.47203606 -198.45483274 142.17454013 -199.18101335 136.87678039 C-199.43274977 135.04194967 -199.68506897 133.20719878 -199.93805289 131.37253964 C-205.28308078 92.59228539 -202.46501678 56.00274319 -178.375 23.375 C-157.46901979 -3.06552627 -128.57186877 -20.98483109 -94.97460938 -25.68652344 C-60.92210823 -29.27511597 -26.90011488 -21.74288426 0 0 Z " fill="#F79839" transform="translate(4377,1286)"/>
<path d="M0 0 C14.01413689 11.45699563 24.70586685 24.52201289 30.5625 41.875 C30.93117188 42.9475 31.29984375 44.02 31.6796875 45.125 C34.39979961 54.33764248 35.0372591 63.3625399 35.5625 72.9375 C37.3776555 105.60930413 52.00476799 127.71142816 75.5625 149.875 C79.1337703 153.00197053 82.82302016 155.95208151 86.5625 158.875 C87.16416992 159.34776367 87.76583984 159.82052734 88.38574219 160.30761719 C101.66201722 170.71190884 115.36303569 180.51052048 129.46484375 189.765625 C130.43131836 190.40121338 131.39779297 191.03680176 132.39355469 191.69165039 C134.26530522 192.917567 136.14211018 194.13580875 138.02441406 195.34545898 C138.86584961 195.89532471 139.70728516 196.44519043 140.57421875 197.01171875 C141.32147217 197.49342529 142.06872559 197.97513184 142.83862305 198.47143555 C144.5625 199.875 144.5625 199.875 145.5625 202.875 C144.44875 203.55304688 143.335 204.23109375 142.1875 204.9296875 C134.82961912 209.41469249 127.48096764 213.91087391 120.1875 218.5 C112.97831036 223.02532871 105.71320143 227.45759209 98.4375 231.875 C97.54853027 232.4148201 97.54853027 232.4148201 96.64160156 232.96554565 C89.72847301 237.1611902 82.80319202 241.33580088 75.859375 245.48046875 C49.01497882 261.50607512 22.76604605 278.14706416 -2.36328125 296.78125 C-3.06404785 297.30074219 -3.76481445 297.82023437 -4.48681641 298.35546875 C-6.30692142 299.77328272 -7.97521677 301.27872238 -9.66796875 302.84375 C-12.4375 304.875 -12.4375 304.875 -14.8984375 305.03125 C-18.47460098 303.40272017 -21.18214238 300.98854723 -24.0625 298.375 C-25.30497522 297.27619569 -26.54847663 296.17855072 -27.79296875 295.08203125 C-28.4070459 294.53756348 -29.02112305 293.9930957 -29.65380859 293.43212891 C-32.1712261 291.23447097 -34.76656681 289.15141122 -37.375 287.0625 C-41.06441217 284.06889802 -44.46784353 280.96634063 -47.765625 277.55078125 C-49.56320925 275.74899703 -51.44410302 274.09522744 -53.375 272.4375 C-60.31560817 266.43481185 -66.47561594 259.83435312 -72.4375 252.875 C-73.34299377 251.84438717 -74.24930958 250.81449625 -75.15625 249.78515625 C-117.54989251 201.40775535 -141.32838745 141.27952931 -141.875 76.9375 C-141.88721588 76.16557312 -141.89943176 75.39364624 -141.91201782 74.59832764 C-142.10392457 60.22732511 -140.31015609 46.0681654 -133.75 33.0625 C-133.40751221 32.36366699 -133.06502441 31.66483398 -132.7121582 30.94482422 C-121.8893093 9.60268517 -103.68987208 -5.1612627 -81.4375 -13.125 C-53.59030417 -21.52859164 -23.64787711 -17.49178702 0 0 Z " fill="#512D8A" transform="translate(291.4375,452.125)"/>
<path d="M0 0 C0.59119629 0.30276855 1.18239258 0.60553711 1.79150391 0.91748047 C11.25924973 5.7946476 19.17846727 11.79963466 27 19 C27.87398437 19.79148437 28.74796875 20.58296875 29.6484375 21.3984375 C51.48961073 42.13721713 65.33258565 73.03768788 66.203125 103.14453125 C66.64492821 134.8788646 58.81579659 164.33590489 38 189 C37.18144531 189.98097656 36.36289062 190.96195313 35.51953125 191.97265625 C16.16686888 214.4612339 -12.32666694 230.11001762 -42 233 C-79.93953372 235.35928248 -112.23281115 226.83264843 -141.125 201.625 C-159.6789321 184.43445589 -171.55243343 164.34334759 -178 140 C-178.32097656 138.81792969 -178.64195313 137.63585938 -178.97265625 136.41796875 C-183.47863339 116.73837559 -182.32250059 95.37777947 -177 76 C-176.82339844 75.33258789 -176.64679688 74.66517578 -176.46484375 73.97753906 C-171.11513911 54.31242107 -159.85123932 37.68998218 -146 23 C-145.33742187 22.26136719 -144.67484375 21.52273438 -143.9921875 20.76171875 C-108.10392682 -17.65100134 -45.24608696 -23.92594127 0 0 Z " fill="#F6933C" transform="translate(4284,931)"/>
<path d="M0 0 C5.89137831 4.72651119 10.35554693 10.05670276 15 16 C15.49983398 16.63550781 15.99966797 17.27101563 16.51464844 17.92578125 C44.33731067 53.39501305 64.16905753 93.32872257 72 138 C72.16371094 138.9163623 72.32742188 139.83272461 72.49609375 140.77685547 C79.22898952 180.40217284 75.99815218 223.03118025 64.3125 261.375 C64.11027832 262.04152588 63.90805664 262.70805176 63.69970703 263.39477539 C63.19692016 264.95190758 62.60660295 266.48029998 62 268 C59.55479181 269.22260409 58.3014491 269.01486021 55.58569336 268.80981445 C54.17961571 268.7087162 54.17961571 268.7087162 52.74513245 268.60557556 C51.18326454 268.48563988 51.18326454 268.48563988 49.58984375 268.36328125 C47.27917515 268.19783079 44.96846291 268.03298909 42.65771484 267.86865234 C41.40738464 267.77815613 40.15705444 267.68765991 38.86883545 267.59442139 C10.55787071 265.56420378 -17.76963055 264.12008982 -46.125 262.875 C-47.08039673 262.8329607 -48.03579346 262.7909214 -49.0201416 262.74760818 C-79.67596442 261.40063713 -110.33524125 260.12665681 -141 259 C-139.34629231 255.44579701 -137.58944156 253.58575849 -134.5625 251.0625 C-117.79467888 236.25455407 -104.52478116 215.89957225 -102.77880859 193.11328125 C-101.64316523 163.46090806 -109.94288275 142.22937109 -129.9375 120.3125 C-136.46660994 113.29617406 -143.48674228 106.94965206 -151 101 C-149.86067356 97.58202068 -149.38010304 97.32314661 -146.43359375 95.53125 C-145.6545166 95.05244385 -144.87543945 94.5736377 -144.07275391 94.08032227 C-143.20312012 93.55881592 -142.33348633 93.03730957 -141.4375 92.5 C-140.52145996 91.94175537 -139.60541992 91.38351074 -138.66162109 90.80834961 C-128.80372573 84.82509881 -118.87052171 78.96507302 -108.94873047 73.08862305 C-75.932774 53.53246899 -43.50355188 33.33517723 -13 10 C-12.35788574 9.50886719 -11.71577148 9.01773437 -11.05419922 8.51171875 C-7.36201999 5.68406343 -3.67770888 2.84644591 0 0 Z " fill="#BA2368" transform="translate(568,1608)"/>
</svg>
