<?xml version="1.0" encoding="UTF-8"?>
<svg id="Layer_1" xmlns="http://www.w3.org/2000/svg" xmlns:xlink="http://www.w3.org/1999/xlink" viewBox="0 0 341.62 223.78">
  <defs>
    <style>
      .cls-1 {
        fill: url(#linear-gradient-2);
      }

      .cls-2 {
        fill: url(#linear-gradient-4);
      }

      .cls-3 {
        fill: url(#linear-gradient-3);
      }

      .cls-4 {
        fill: url(#linear-gradient-5);
      }

      .cls-5 {
        fill: url(#linear-gradient-8);
      }

      .cls-6 {
        fill: url(#linear-gradient-7);
      }

      .cls-7 {
        fill: url(#linear-gradient-6);
      }

      .cls-8 {
        fill: url(#linear-gradient);
      }
    </style>
    <linearGradient id="linear-gradient" x1="38.29" y1="111.89" x2="96.87" y2="111.89" gradientUnits="userSpaceOnUse">
      <stop offset="0" stop-color="#dba2c9"/>
      <stop offset="1" stop-color="#30a1d6"/>
    </linearGradient>
    <linearGradient id="linear-gradient-2" x1="99.26" y1="114.52" x2="190.84" y2="114.52" gradientUnits="userSpaceOnUse">
      <stop offset="0" stop-color="#ed5e43"/>
      <stop offset="1" stop-color="#e44398"/>
    </linearGradient>
    <linearGradient id="linear-gradient-3" x1="193.23" y1="143.6" x2="231.95" y2="143.6" xlink:href="#linear-gradient"/>
    <linearGradient id="linear-gradient-4" x1="217.69" y1="143.6" x2="241.7" y2="143.6" xlink:href="#linear-gradient-2"/>
    <linearGradient id="linear-gradient-5" x1="264.61" y1="143.6" x2="303.33" y2="143.6" xlink:href="#linear-gradient"/>
    <linearGradient id="linear-gradient-6" x1="289.07" y1="143.6" x2="313.08" y2="143.6" gradientUnits="userSpaceOnUse">
      <stop offset="0" stop-color="#e44398"/>
      <stop offset="1" stop-color="#ed5e43"/>
    </linearGradient>
    <linearGradient id="linear-gradient-7" x1="240.76" y1="143.6" x2="264.77" y2="143.6" xlink:href="#linear-gradient-2"/>
    <linearGradient id="linear-gradient-8" x1="244.89" y1="111.42" x2="244.89" y2="91.68" gradientUnits="userSpaceOnUse">
      <stop offset="0" stop-color="#ed5e43"/>
      <stop offset="1" stop-color="#30a1d6"/>
    </linearGradient>
  </defs>
  <path class="cls-8" d="M72.45,107.33c-1.2,0-2.37.11-3.53.32l8.27-40.17c1.11-5.41-2.37-10.7-7.78-11.81-5.4-1.11-10.7,2.37-11.81,7.78l-19.11,92.86c-1.11,5.41,2.37,10.7,7.78,11.81.68.14,1.36.21,2.03.21,4.18,0,7.97-2.64,9.39-6.62,4.1,3.86,9.21,6.16,14.76,6.16s10.17-2.08,14.17-5.61l2.26-2.26c4.91-5.54,7.99-13.52,7.99-22.39,0-16.72-10.93-30.27-24.42-30.27Z"/>
  <path class="cls-1" d="M190.82,157.17l-5.04-72.67c.44-5.14-1.18-10.84-5.88-17.08-1.96-2.6-4.6-4.67-7.71-5.63-3.55-1.1-8.34-1.09-13.18,3.47-7.91,7.45-20,7.45-27.91,0-4.84-4.56-9.63-4.57-13.18-3.47-3.11.97-5.75,3.03-7.71,5.63-4.69,6.22-6.31,11.91-5.88,17.05l-5.04,72.7c-.38,5.51,3.77,10.29,9.28,10.67.24.02.47.02.7.02,5.21,0,9.6-4.03,9.97-9.31l3.52-50.72c3.84,2.37,7.76,4.34,11.23,5.89,7.05,3.15,15.09,3.15,22.14,0,3.47-1.55,7.39-3.52,11.22-5.89l3.52,50.72c.37,5.27,4.76,9.31,9.97,9.31.23,0,.47,0,.7-.02,5.51-.38,9.67-5.16,9.28-10.67Z"/>
  <g>
    <path class="cls-3" d="M201.36,163.15c3.17,2.8,7.05,4.45,11.23,4.45,10.69,0,19.36-10.75,19.36-24s-8.67-24-19.36-24-19.36,10.75-19.36,24c0,7.04,2.44,13.37,6.34,17.76l1.79,1.79Z"/>
    <path class="cls-2" d="M231.69,168.05c-4.91,0-9.2-3.62-9.89-8.63l-4.01-28.91c-.76-5.47,3.06-10.52,8.53-11.28,5.46-.75,10.52,3.06,11.28,8.53l4.01,28.91c.76,5.47-3.06,10.52-8.53,11.28-.47.06-.93.1-1.39.1Z"/>
  </g>
  <g>
    <path class="cls-4" d="M272.73,163.15c3.17,2.8,7.05,4.45,11.23,4.45,10.69,0,19.36-10.75,19.36-24s-8.67-24-19.36-24-19.36,10.75-19.36,24c0,7.04,2.44,13.37,6.34,17.76l1.79,1.79Z"/>
    <path class="cls-7" d="M303.06,168.05c-4.91,0-9.2-3.62-9.89-8.63l-4.01-28.91c-.76-5.47,3.06-10.52,8.53-11.28,5.46-.76,10.52,3.06,11.28,8.53l4.01,28.91c.76,5.47-3.06,10.52-8.53,11.28-.46.06-.93.1-1.39.1Z"/>
  </g>
  <g>
    <path class="cls-6" d="M254.75,168.05c-4.91,0-9.2-3.62-9.89-8.63l-4.01-28.91c-.76-5.47,3.06-10.52,8.53-11.28,5.46-.75,10.52,3.06,11.28,8.53l4.01,28.91c.76,5.47-3.06,10.52-8.53,11.28-.47.06-.93.1-1.39.1Z"/>
    <circle class="cls-5" cx="244.89" cy="101.55" r="9.87"/>
  </g>
</svg>