<?xml version="1.0" encoding="UTF-8"?>
<svg id="Layer_1" xmlns="http://www.w3.org/2000/svg" xmlns:xlink="http://www.w3.org/1999/xlink" viewBox="0 0 984 409">
  <defs>
    <style>
      .cls-1 {
        fill: url(#linear-gradient-2);
      }

      .cls-2 {
        fill: url(#linear-gradient-3);
      }

      .cls-3 {
        fill: #231f20;
      }

      .cls-4 {
        fill: url(#linear-gradient);
      }
    </style>
    <linearGradient id="linear-gradient" x1="1024.07" y1="1673.31" x2="1106.54" y2="1673.31" gradientTransform="translate(1850.05 -1339.56) rotate(-171.48) scale(1.1 -1.08) skewX(9.9)" gradientUnits="userSpaceOnUse">
      <stop offset="0" stop-color="#daa0c8"/>
      <stop offset=".23" stop-color="#df899a"/>
      <stop offset=".46" stop-color="#e47774"/>
      <stop offset=".67" stop-color="#e86959"/>
      <stop offset=".86" stop-color="#ea6148"/>
      <stop offset="1" stop-color="#eb5f43"/>
    </linearGradient>
    <linearGradient id="linear-gradient-2" x1="159.39" y1="364.83" x2="159.39" y2="180.06" gradientUnits="userSpaceOnUse">
      <stop offset="0" stop-color="#daa0c8"/>
      <stop offset=".03" stop-color="#da9dc2"/>
      <stop offset=".36" stop-color="#e1828b"/>
      <stop offset=".64" stop-color="#e66f64"/>
      <stop offset=".86" stop-color="#e9634b"/>
      <stop offset="1" stop-color="#eb5f43"/>
    </linearGradient>
    <linearGradient id="linear-gradient-3" x1="5581.56" y1="-1403.23" x2="5732.25" y2="-1403.23" gradientTransform="translate(-3663.33 4475.83) rotate(-34.23)" gradientUnits="userSpaceOnUse">
      <stop offset="0" stop-color="#eb5f43"/>
      <stop offset="1" stop-color="#f4c367"/>
    </linearGradient>
  </defs>
  <path class="cls-4" d="M73.01,185.53c-17.4,84.86,58.98,96.41,58.98,96.41l3.23-1.98s24.5-73.25-58.98-96.41l-2.67-.74-.56,2.71Z"/>
  <path class="cls-1" d="M147.88,363.16v-60.44l-.05-1.09c-.05-.49-4-49.99,45.55-106.91l-16.83-14.66c-53.72,61.71-51.52,116.14-50.98,123.13v61.64h22.02l.3-1.67Z"/>
  <g>
    <path class="cls-3" d="M189.69,212.54c0-2.37,1.92-4.29,4.29-4.29h48.39c32.48,0,53.51,12.07,53.51,40.6,0,9.51-3.12,21.13-13.02,28.13-2.8,1.98-2.21,6.21,1,7.42,13.25,4.99,20.34,16.04,20.34,32.75,0,26.65-18.32,46.01-56.63,46.01h-53.6c-2.37,0-4.29-1.92-4.29-4.29v-146.33ZM267.77,251.36c-.42-15.83-10.2-18.53-28.94-18.53h-16.74c-2.37,0-4.29,1.92-4.29,4.29v32.65c0,2.37,1.92,4.29,4.29,4.29h20.08c17.07,0,25.82-6.45,25.61-22.69ZM274.64,315.9c-.21-15.62-8.12-20.61-27.9-20.61h-24.66c-2.37,0-4.29,1.92-4.29,4.29v34.94c0,2.37,1.92,4.29,4.29,4.29h23.4c23.32,0,29.36-10,29.15-22.9Z"/>
    <path class="cls-3" d="M376.23,364.83c-32.9,0-55.17-22.07-55.17-56.63s18.94-59.34,53.72-59.34c26.65,0,47.89,16.87,47.89,49.97,0,5.47-.44,9.95-1.09,13.42-.37,2.01-2.18,3.43-4.23,3.42l-63.62-.37c-2.7-.02-4.79,2.46-4.26,5.11,2.83,13.95,12.24,21.31,28.84,21.31,11.52,0,19.13-3.64,24.6-7.53,2.13-1.52,5.1-.79,6.29,1.54l5.95,11.65c.92,1.81.43,3.97-1.11,5.29-8.8,7.54-21.76,12.16-37.81,12.16ZM391.07,296.33c2.52,0,4.55-2.18,4.28-4.69-1.32-12.17-8.07-20.09-21.41-20.09-12.14,0-21.03,6.99-24.23,19.53-.68,2.66,1.44,5.24,4.19,5.24h37.17Z"/>
    <path class="cls-3" d="M451.5,208.26h36.68c1.78,0,3.38,1.11,4.01,2.78l26.23,69.68c1.55,4.16,3.09,8.59,4.52,13.1,1.26,4.01,6.95,4.04,8.17.01,1.38-4.55,2.94-9.05,4.59-13.32l26.43-69.48c.63-1.66,2.23-2.76,4.01-2.76h36.48c2.37,0,4.29,1.92,4.29,4.29v146.33c0,2.37-1.92,4.29-4.29,4.29h-20.58c-2.37,0-4.29-1.92-4.29-4.29v-71.92c0-8.68.29-16.26.73-23.61.3-4.87-6.46-6.38-8.26-1.84l-29.09,73.54c-.65,1.64-2.23,2.71-3.99,2.71h-20.4c-1.76,0-3.35-1.08-3.99-2.72l-28.56-72.95c-1.77-4.51-8.47-3.09-8.27,1.75.3,7.2.42,14.65.42,23.12v71.92c0,2.37-1.92,4.29-4.29,4.29h-20.58c-2.37,0-4.29-1.92-4.29-4.29v-146.33c0-2.37,1.92-4.29,4.29-4.29Z"/>
    <path class="cls-3" d="M631.47,329.22c0-21.45,16.03-34.36,40.81-34.36,8.58,0,16.34,2.21,21.61,4.3,2.82,1.12,5.87-.94,5.87-3.98v-3.24c0-12.28-6.25-19.99-21.24-19.99-12.6,0-22.11,5.27-27.93,9.45-2.12,1.52-5.12.75-6.33-1.57l-6.85-13.18c-.94-1.81-.51-4.08,1.11-5.32,7.56-5.78,22.43-12.7,41.66-12.7,33.94,0,46.43,17.49,46.43,43.72v42.68c0,5.41,1.88,6.25,4.37,6.25,1.46,0,3.75-.42,4.79-1.04v19.04c0,1.98-1.33,3.73-3.25,4.17-3.06.71-6.67,1.15-10.28,1.15-11.66,0-21.45-4.58-21.45-19.36v-5c-3.54,12.28-13.12,24.36-32.48,24.36s-36.85-12.7-36.85-35.39ZM699.34,324.73v-3.19c0-1.62-.88-3.12-2.33-3.83-4.37-2.15-10.94-3.89-19.11-3.89-11.45,0-18.94,4.79-18.94,14.99,0,12.28,8.95,15.41,15.41,15.41,11.63,0,22.11-7.34,24.72-17.19.2-.75.26-1.53.26-2.3Z"/>
    <path class="cls-3" d="M754.71,218.46c0-11.24,6.45-16.86,16.86-16.86s16.87,5.62,16.87,16.86-6.66,16.66-16.87,16.66-16.86-5.41-16.86-16.66ZM760.87,250.73h20.79c2.37,0,4.29,1.92,4.29,4.29v103.86c0,2.37-1.92,4.29-4.29,4.29h-20.79c-2.37,0-4.29-1.92-4.29-4.29v-103.86c0-2.37,1.92-4.29,4.29-4.29Z"/>
    <path class="cls-3" d="M809.26,329.22c0-21.45,16.03-34.36,40.81-34.36,8.58,0,16.34,2.21,21.61,4.3,2.82,1.12,5.87-.94,5.87-3.98v-3.24c0-12.28-6.25-19.99-21.24-19.99-12.6,0-22.11,5.27-27.93,9.45-2.12,1.52-5.12.75-6.33-1.57l-6.85-13.18c-.94-1.81-.51-4.08,1.11-5.32,7.56-5.78,22.43-12.7,41.66-12.7,33.94,0,46.43,17.49,46.43,43.72v42.68c0,5.41,1.88,6.25,4.37,6.25,1.46,0,3.75-.42,4.79-1.04v19.04c0,1.98-1.33,3.73-3.25,4.17-3.06.71-6.67,1.15-10.28,1.15-11.66,0-21.45-4.58-21.45-19.36v-5c-3.54,12.28-13.12,24.36-32.48,24.36s-36.85-12.7-36.85-35.39ZM877.13,324.73v-3.19c0-1.62-.88-3.12-2.33-3.83-4.37-2.15-10.94-3.89-19.11-3.89-11.45,0-18.94,4.79-18.94,14.99,0,12.28,8.95,15.41,15.41,15.41,11.63,0,22.11-7.34,24.72-17.19.2-.75.26-1.53.26-2.3Z"/>
  </g>
  <path class="cls-2" d="M284.79,93l1.01-3.16-3.31-.22c-32.39-2.17-56.3,5.07-73.87,16.02,2.47-19.99-.75-43.97-15.04-71.68l-1.52-2.94-2.5,2.18c-74.34,65.01-31.7,136.06-27.54,142.59v.02s.05.08.16.23c.1.15.16.24.16.24h.02c4.54,6.27,54.97,72.02,142.74,26.75l2.94-1.52-2.18-2.5c-22.1-25.27-44.9-37.02-65.63-41.36,17.59-12.18,34.18-32.16,44.56-64.64Z"/>
</svg>